<svg viewBox="0 0 195 56" height="48px"><g fill="none" fill-rule="evenodd"><path d="M189.385 56H5.623C2.52 56 0 53.488 0 50.387V5.62C0 2.52 2.52 0 5.623 0h183.76C192.49 0 195 2.52 195 5.62v44.767c0 3.1-2.51 5.613-5.615 5.613z" fill="#000"></path><path d="M42.585 28.924c-.042-4.712 3.86-7.004 4.037-7.11-2.21-3.222-5.633-3.662-6.836-3.697-2.876-.302-5.666 1.72-7.13 1.72-1.495 0-3.75-1.69-6.182-1.64-3.13.047-6.056 1.86-7.66 4.672-3.314 5.73-.843 14.16 2.33 18.8 1.59 2.27 3.444 4.8 5.872 4.71 2.376-.1 3.264-1.52 6.13-1.52 2.84 0 3.675 1.51 6.15 1.45 2.55-.04 4.156-2.28 5.688-4.57 1.835-2.6 2.572-5.17 2.6-5.3-.06-.02-4.95-1.89-5-7.54zm-4.678-13.857c1.278-1.598 2.152-3.772 1.91-5.978-1.85.08-4.163 1.28-5.495 2.84-1.178 1.38-2.23 3.63-1.96 5.76 2.078.15 4.212-1.05 5.545-2.63zm39.06 30.993h-3.32l-1.82-5.716h-6.32l-1.733 5.715h-3.232l6.263-19.46h3.868l6.294 19.45zm-5.687-8.114l-1.645-5.08c-.174-.52-.5-1.74-.98-3.665h-.06c-.19.83-.5 2.05-.923 3.67l-1.616 5.08h5.224zm21.794.926c0 2.386-.645 4.272-1.934 5.656-1.155 1.233-2.59 1.848-4.3 1.848-1.85 0-3.177-.664-3.985-1.99h-.06v7.39H79.68v-15.13c0-1.5-.04-3.04-.116-4.617h2.74l.175 2.22h.05c1.04-1.68 2.61-2.51 4.73-2.51 1.65 0 3.03.65 4.14 1.96 1.11 1.31 1.66 3.03 1.66 5.17zm-3.175.114c0-1.366-.31-2.49-.93-3.377-.68-.93-1.58-1.39-2.72-1.39-.77 0-1.47.25-2.09.76-.63.51-1.04 1.18-1.23 2.01-.1.38-.15.7-.15.95v2.34c0 1.02.31 1.88.94 2.58.62.7 1.44 1.05 2.44 1.05 1.17 0 2.08-.46 2.74-1.36.65-.91.98-2.1.98-3.58zm19.31-.114c0 2.386-.65 4.272-1.94 5.656-1.16 1.233-2.59 1.848-4.3 1.848-1.85 0-3.18-.664-3.99-1.99h-.06v7.39h-3.11v-15.13c0-1.5-.04-3.04-.12-4.617h2.74l.17 2.22h.05c1.04-1.68 2.61-2.51 4.73-2.51 1.65 0 3.03.65 4.14 1.96 1.1 1.31 1.66 3.03 1.66 5.17zm-3.18.114c0-1.366-.31-2.49-.93-3.377-.68-.93-1.58-1.39-2.72-1.39-.77 0-1.47.25-2.1.76s-1.04 1.18-1.23 2.01c-.1.38-.15.7-.15.95v2.34c0 1.02.31 1.88.93 2.58.62.7 1.44 1.05 2.44 1.05 1.17 0 2.09-.46 2.74-1.36.65-.91.98-2.1.98-3.58zm21.21 1.617c0 1.655-.58 3-1.73 4.04-1.27 1.137-3.04 1.704-5.3 1.704-2.1 0-3.77-.404-5.05-1.212l.72-2.598c1.37.828 2.87 1.243 4.5 1.243 1.17 0 2.09-.266 2.74-.796.65-.53.98-1.24.98-2.125 0-.79-.27-1.46-.81-2s-1.43-1.04-2.69-1.51c-3.41-1.27-5.11-3.14-5.11-5.58 0-1.6.59-2.91 1.79-3.93 1.19-1.03 2.78-1.54 4.76-1.54 1.77 0 3.24.31 4.41.92l-.78 2.54c-1.094-.6-2.334-.9-3.72-.9-1.1 0-1.956.27-2.57.81-.52.48-.78 1.07-.78 1.76 0 .77.3 1.4.895 1.9.52.46 1.463.96 2.83 1.5 1.676.67 2.905 1.46 3.696 2.36.79.9 1.18 2.02 1.18 3.37zm10.3-6.233h-3.44v6.81c0 1.733.61 2.598 1.82 2.598.56 0 1.02-.048 1.38-.144l.1 2.366c-.61.23-1.42.346-2.42.346-1.23 0-2.2-.376-2.89-1.126-.7-.752-1.04-2.012-1.04-3.782v-7.072H129v-2.34h2.045V29.46l3.06-.924v3.493h3.438v2.34zm15.5 4.56c0 2.155-.62 3.926-1.85 5.31-1.29 1.426-3.01 2.136-5.14 2.136-2.06 0-3.7-.683-4.92-2.048-1.23-1.366-1.84-3.09-1.84-5.167 0-2.17.63-3.95 1.89-5.33 1.26-1.38 2.96-2.08 5.09-2.08 2.06 0 3.72.69 4.97 2.05 1.19 1.33 1.79 3.04 1.79 5.14zm-3.24.1c0-1.294-.28-2.404-.84-3.33-.66-1.12-1.59-1.678-2.8-1.678-1.26 0-2.21.56-2.86 1.68-.56.926-.84 2.053-.84 3.386 0 1.294.27 2.404.83 3.328.67 1.12 1.61 1.678 2.83 1.678 1.19 0 2.12-.57 2.8-1.708.57-.943.86-2.064.86-3.356zm13.36-4.26c-.31-.056-.64-.085-.99-.085-1.1 0-1.95.413-2.54 1.242-.52.73-.78 1.655-.78 2.77v7.362h-3.12l.03-9.62c0-1.62-.04-3.09-.12-4.42h2.71l.11 2.68h.09c.33-.92.85-1.67 1.56-2.22.69-.5 1.44-.75 2.25-.75.29 0 .55.02.78.05v2.97zm13.94 3.61c0 .56-.04 1.03-.12 1.414h-9.35c.03 1.386.49 2.446 1.35 3.177.79.66 1.8.99 3.06.99 1.38 0 2.64-.22 3.78-.66l.49 2.17c-1.33.58-2.9.87-4.71.87-2.18 0-3.89-.64-5.13-1.92-1.24-1.28-1.86-2.99-1.86-5.15 0-2.11.57-3.88 1.73-5.28 1.21-1.5 2.84-2.25 4.9-2.25 2.023 0 3.553.75 4.593 2.25.82 1.19 1.234 2.67 1.234 4.42zm-2.98-.808c.02-.924-.19-1.722-.61-2.396-.54-.867-1.37-1.3-2.48-1.3-1.02 0-1.85.423-2.48 1.27-.52.675-.83 1.483-.92 2.425h6.49v.01zm-103.9-22.94c0 1.72-.52 3.017-1.55 3.887-.96.8-2.32 1.2-4.07 1.2-.87 0-1.62-.04-2.24-.12v-9.4c.81-.13 1.69-.2 2.63-.2 1.68 0 2.94.36 3.79 1.09.96.82 1.43 2 1.43 3.53zm-1.62.044c0-1.116-.3-1.97-.89-2.568-.59-.595-1.46-.893-2.59-.893-.49 0-.9.032-1.24.1v7.147c.19.03.53.043 1.03.043 1.17 0 2.08-.326 2.713-.978.64-.653.96-1.603.96-2.85zm10.18 1.46c0 1.06-.3 1.93-.91 2.61-.64.7-1.48 1.05-2.53 1.05-1.01 0-1.82-.335-2.42-1.008-.6-.67-.9-1.517-.9-2.538 0-1.067.31-1.943.93-2.623.62-.68 1.46-1.02 2.5-1.02 1.01 0 1.822.335 2.44 1.006.582.652.88 1.494.88 2.523zm-1.59.05c0-.636-.14-1.18-.41-1.636-.32-.55-.78-.825-1.38-.825-.61 0-1.08.275-1.4.825-.27.455-.41 1.01-.41 1.664 0 .636.14 1.18.41 1.636.33.55.8.824 1.39.824.59 0 1.05-.28 1.38-.84.28-.462.42-1.012.42-1.648zm13.07-3.44l-2.15 6.894h-1.4l-.9-3c-.23-.75-.41-1.49-.55-2.23h-.03c-.13.757-.32 1.498-.55 2.226l-.94 2.993h-1.42l-2.03-6.9h1.58l.78 3.28c.19.77.34 1.51.47 2.21h.03c.11-.58.3-1.31.57-2.2l.97-3.29h1.25l.934 3.22c.23.78.41 1.54.554 2.27h.04c.107-.71.26-1.47.47-2.27l.84-3.22h1.5zm7.94 6.894h-1.5v-3.95c0-1.217-.46-1.825-1.39-1.825-.46 0-.82.167-1.11.502-.28.333-.43.728-.43 1.18v4.088h-1.53v-4.92c0-.607-.02-1.263-.05-1.974h1.344l.07 1.08h.04c.18-.33.45-.61.797-.83.415-.25.88-.39 1.39-.39.64 0 1.177.21 1.603.63.53.51.794 1.27.794 2.29v4.13zm4.22 0h-1.53V9.584h1.53V19.64zm9.02-3.504c0 1.06-.31 1.93-.91 2.61-.64.7-1.48 1.05-2.53 1.05-1.01 0-1.82-.335-2.42-1.008-.6-.67-.9-1.517-.9-2.538 0-1.067.3-1.943.92-2.623.62-.68 1.453-1.02 2.5-1.02 1.015 0 1.83.335 2.443 1.006.58.652.88 1.494.88 2.523zm-1.59.05c0-.636-.14-1.18-.42-1.636-.32-.55-.78-.825-1.37-.825-.62 0-1.09.275-1.41.825-.276.455-.41 1.01-.41 1.664 0 .636.14 1.18.41 1.636.33.55.793.824 1.39.824.584 0 1.042-.28 1.372-.84.28-.462.42-1.012.42-1.648zm9 3.454h-1.37l-.12-.795h-.04c-.47.633-1.14.95-2.02.95-.65 0-1.178-.21-1.57-.624-.36-.37-.54-.84-.54-1.4 0-.84.36-1.48 1.06-1.93.71-.44 1.7-.66 2.98-.65v-.13c0-.9-.48-1.36-1.43-1.36-.68 0-1.28.17-1.8.51l-.31-1c.64-.39 1.43-.59 2.36-.59 1.8 0 2.7.95 2.7 2.85V18c0 .686.03 1.235.1 1.64zm-1.59-2.37v-1.06c-1.69-.03-2.54.434-2.54 1.39 0 .358.09.627.29.807.19.18.45.27.75.27.33 0 .65-.108.94-.32.28-.213.46-.483.53-.815.01-.075.02-.166.02-.27zm10.29 2.37h-1.36l-.07-1.108h-.04c-.437.842-1.177 1.264-2.21 1.264-.83 0-1.53-.326-2.07-.98-.55-.65-.83-1.497-.83-2.537 0-1.12.3-2.02.895-2.71.58-.65 1.287-.97 2.13-.97.924 0 1.57.31 1.94.93h.03V9.58h1.53v8.197c0 .67.02 1.29.06 1.857zM126 16.733v-1.15c0-.198-.013-.36-.04-.482-.08-.36-.27-.67-.55-.92s-.63-.37-1.02-.37c-.57 0-1.02.23-1.35.68-.325.46-.49 1.04-.49 1.75 0 .68.156 1.24.47 1.66.33.46.78.68 1.34.68.5 0 .905-.19 1.21-.57.296-.35.44-.77.44-1.26zm14.693-.597c0 1.06-.304 1.93-.91 2.61-.633.7-1.473 1.05-2.524 1.05-1.01 0-1.82-.335-2.42-1.008-.6-.67-.9-1.517-.9-2.538 0-1.067.31-1.943.93-2.623.62-.68 1.45-1.02 2.5-1.02 1.01 0 1.82.335 2.44 1.006.58.652.88 1.494.88 2.523zm-1.59.05c0-.636-.136-1.18-.41-1.636-.323-.55-.78-.825-1.375-.825-.61 0-1.08.275-1.4.825-.27.455-.41 1.01-.41 1.664 0 .636.14 1.18.41 1.636.33.55.798.824 1.39.824.59 0 1.05-.28 1.38-.84.28-.462.425-1.012.425-1.648zm9.827 3.454h-1.53v-3.95c0-1.217-.462-1.825-1.39-1.825-.455 0-.822.167-1.106.502-.284.333-.425.728-.425 1.18v4.088h-1.53v-4.92c0-.607-.02-1.263-.06-1.974h1.34l.07 1.08h.04c.18-.33.44-.61.79-.83.41-.25.88-.39 1.39-.39.64 0 1.17.21 1.6.63.53.51.79 1.27.79 2.29v4.13zm10.312-5.745h-1.688v3.348c0 .85.3 1.276.892 1.276.28 0 .51-.03.69-.08l.04 1.16c-.303.11-.7.17-1.19.17-.606 0-1.077-.19-1.417-.56-.35-.37-.51-.99-.51-1.86v-3.47h-1.01v-1.14h1v-1.26l1.5-.46v1.71h1.69v1.15zm8.11 5.745h-1.534v-3.92c0-1.234-.46-1.853-1.384-1.853-.71 0-1.196.358-1.462 1.075-.048.15-.075.334-.075.55v4.146h-1.53V9.585h1.53v4.153h.03c.49-.755 1.18-1.133 2.07-1.133.64 0 1.16.208 1.58.625.52.52.78 1.29.78 2.31v4.1zm8.367-3.773c0 .275-.02.506-.06.695h-4.6c.03.68.24 1.2.67 1.56.39.32.89.482 1.51.482.68 0 1.3-.108 1.86-.326l.24 1.064c-.66.284-1.43.426-2.32.426-1.07 0-1.91-.315-2.52-.943-.61-.63-.91-1.472-.91-2.53 0-1.04.28-1.906.85-2.596.59-.74 1.39-1.11 2.41-1.11.99 0 1.74.37 2.25 1.1.41.58.61 1.3.61 2.16zm-1.46-.396c.02-.45-.08-.84-.29-1.17-.27-.42-.67-.64-1.22-.64-.5 0-.91.21-1.22.63-.26.33-.41.73-.46 1.19h3.19z" fill="#FFF"></path></g></svg>